<svg width="6" height="11" viewBox="0 0 6 11" fill="none" xmlns="http://www.w3.org/2000/svg">
<path d="M0.85375 0.146648L5.85375 5.14665C5.90024 5.19308 5.93712 5.24823 5.96228 5.30893C5.98744 5.36963 6.00039 5.43469 6.00039 5.5004C6.00039 5.56611 5.98744 5.63117 5.96228 5.69187C5.93712 5.75257 5.90024 5.80771 5.85375 5.85415L0.85375 10.8541C0.783823 10.9242 0.694696 10.9718 0.597654 10.9912C0.500611 11.0105 0.400016 11.0006 0.308605 10.9627C0.217193 10.9248 0.139075 10.8607 0.08414 10.7784C0.0292046 10.6961 -7.77313e-05 10.5993 1.33027e-07 10.5004L-3.04087e-07 0.500399C-7.81771e-05 0.40145 0.0292041 0.304704 0.0841395 0.222407C0.139075 0.14011 0.217193 0.075964 0.308604 0.0380878C0.400016 0.000211698 0.500611 -0.00969126 0.597653 0.00963399C0.694695 0.0289592 0.783822 0.076642 0.85375 0.146648Z" fill="#696868"/>
</svg>
