<svg width="6" height="11" viewBox="0 0 6 11" fill="none" xmlns="http://www.w3.org/2000/svg">
<path d="M5.14665 10.8541L0.146647 5.85414C0.100158 5.80771 0.0632789 5.75256 0.0381167 5.69186C0.0129545 5.63117 4.058e-06 5.5661 4.05513e-06 5.50039C4.05225e-06 5.43469 0.0129545 5.36962 0.0381167 5.30892C0.0632789 5.24823 0.100158 5.19308 0.146647 5.14664L5.14665 0.146644C5.21657 0.0766381 5.3057 0.0289544 5.40274 0.00962916C5.49979 -0.00969604 5.60038 0.000206264 5.69179 0.0380825C5.7832 0.0759587 5.86132 0.140106 5.91626 0.222403C5.97119 0.3047 6.00047 0.401446 6.0004 0.500394L6.0004 10.5004C6.00047 10.5993 5.97119 10.6961 5.91626 10.7784C5.86132 10.8607 5.7832 10.9248 5.69179 10.9627C5.60038 11.0006 5.49979 11.0105 5.40274 10.9912C5.3057 10.9718 5.21657 10.9242 5.14665 10.8541Z" fill="#696868"/>
</svg>
