<svg width="20" height="20" viewBox="0 0 20 20" fill="none" xmlns="http://www.w3.org/2000/svg">
<path d="M0.00519406 8.58192C0.226669 6.72479 0.986266 4.97293 2.19051 3.54192C2.32375 3.38125 2.48907 3.25015 2.67587 3.15701C2.86268 3.06388 3.06687 3.01076 3.27539 3.00106C3.4839 2.99135 3.69214 3.02527 3.88679 3.10065C4.08144 3.17602 4.25822 3.29119 4.40582 3.4388L6.99988 6.08817C7.24971 6.33742 7.4028 6.66736 7.43182 7.01906C7.46084 7.37077 7.36391 7.72134 7.15832 8.00817C7.00259 8.22909 6.88531 8.47474 6.81144 8.73473C6.78798 8.81145 6.74053 8.87861 6.67607 8.92637C6.61161 8.97412 6.53354 8.99994 6.45332 9.00005L0.378319 9.00005C0.325382 9.00013 0.273027 8.98901 0.224698 8.96741C0.176368 8.94581 0.133159 8.91422 0.0979127 8.87473C0.0626665 8.83523 0.0361822 8.78872 0.0202016 8.73825C0.00422095 8.68779 -0.000893732 8.63451 0.00519406 8.58192ZM10.5652 0.0056713C10.358 -0.0123962 10.1493 0.0128173 9.95241 0.0797106C9.75549 0.146604 9.57463 0.253715 9.42132 0.394243C9.26801 0.53477 9.1456 0.705642 9.06186 0.896009C8.97812 1.08637 8.93487 1.29208 8.93488 1.50005V5.31286C8.93229 5.66665 9.05594 6.00978 9.28362 6.28059C9.5113 6.5514 9.82809 6.73214 10.1771 6.79036C10.8342 6.89877 11.4366 7.22277 11.8893 7.71129C12.3419 8.19982 12.6192 8.82509 12.6773 9.48856C12.7354 10.152 12.5711 10.816 12.2103 11.3758C11.8494 11.9356 11.3125 12.3594 10.6843 12.5804C10.6111 12.6072 10.548 12.6559 10.5034 12.7197C10.4588 12.7836 10.4349 12.8596 10.4349 12.9375L10.4349 19.0529C10.4345 19.106 10.4455 19.1585 10.4669 19.2071C10.4884 19.2556 10.52 19.2991 10.5595 19.3345C10.599 19.37 10.6456 19.3966 10.6962 19.4127C10.7468 19.4288 10.8003 19.434 10.853 19.4279C13.1929 19.139 15.3497 18.0147 16.9265 16.262C18.5034 14.5093 19.3941 12.2461 19.4349 9.8888C19.5052 4.79911 15.6089 0.457546 10.5652 0.0056713ZM8.67707 12.5775C8.25784 12.428 7.87714 12.1871 7.56256 11.8722C7.24799 11.5573 7.00743 11.1763 6.85832 10.7569C6.83275 10.6825 6.78477 10.6179 6.72098 10.5719C6.65719 10.5259 6.58071 10.5008 6.50207 10.5L0.377381 10.5C0.324376 10.4997 0.271901 10.5106 0.223418 10.532C0.174934 10.5535 0.131544 10.5849 0.096109 10.6244C0.0606738 10.6638 0.0339986 10.7103 0.0178426 10.7607C0.00168672 10.8112 -0.00358284 10.8646 0.00238149 10.9172C0.264988 13.0842 1.24647 15.1006 2.78995 16.644C4.33343 18.1875 6.3498 19.169 8.51676 19.4316C8.56943 19.4376 8.62276 19.4323 8.67325 19.4161C8.72373 19.4 8.77022 19.3733 8.80964 19.3379C8.84906 19.3024 8.88052 19.2591 8.90195 19.2106C8.92338 19.1621 8.93428 19.1096 8.93394 19.0566L8.93394 12.9375C8.93409 12.8582 8.9094 12.7809 8.86333 12.7163C8.81726 12.6517 8.75212 12.6032 8.67707 12.5775Z" fill="#B3B3B3"/>
</svg>
