<svg width="27" height="35" viewBox="0 0 27 35" fill="none" xmlns="http://www.w3.org/2000/svg">
<path d="M21.875 5.075V2.1875C21.875 1.60734 21.6445 1.05094 21.2343 0.640704C20.8241 0.230468 20.2677 0 19.6875 0H7.1875C6.60734 0 6.05094 0.230468 5.6407 0.640704C5.23047 1.05094 5 1.60734 5 2.1875V5.075C3.60625 5.29946 2.33786 6.01255 1.42177 7.08665C0.505689 8.16076 0.00170468 9.52579 0 10.9375V28.4375C0 30.0122 0.625556 31.5224 1.73905 32.6359C2.85255 33.7494 4.36278 34.375 5.9375 34.375H20.9375C22.5122 34.375 24.0224 33.7494 25.1359 32.6359C26.2494 31.5224 26.875 30.0122 26.875 28.4375V10.9375C26.8733 9.52579 26.3693 8.16076 25.4532 7.08665C24.5371 6.01255 23.2687 5.29946 21.875 5.075ZM20 2.1875V5H16.875V1.875H19.6875C19.7704 1.875 19.8499 1.90792 19.9085 1.96653C19.9671 2.02513 20 2.10462 20 2.1875ZM11.875 5V1.875H15V5H11.875ZM7.1875 1.875H10V5H6.875V2.1875C6.875 2.10462 6.90792 2.02513 6.96653 1.96653C7.02513 1.90792 7.10462 1.875 7.1875 1.875ZM25 28.4375C25 28.971 24.8949 29.4993 24.6908 29.9922C24.4866 30.485 24.1874 30.9329 23.8101 31.3101C23.4329 31.6874 22.985 31.9866 22.4922 32.1908C21.9993 32.3949 21.471 32.5 20.9375 32.5H5.9375C5.40401 32.5 4.87573 32.3949 4.38285 32.1908C3.88996 31.9866 3.44212 31.6874 3.06488 31.3101C2.68764 30.9329 2.3884 30.485 2.18424 29.9922C1.98008 29.4993 1.875 28.971 1.875 28.4375V10.9375C1.875 9.86006 2.30301 8.82675 3.06488 8.06488C3.82675 7.30301 4.86006 6.875 5.9375 6.875H20.9375C22.0149 6.875 23.0483 7.30301 23.8101 8.06488C24.572 8.82675 25 9.86006 25 10.9375V28.4375ZM18.125 22.1875C18.125 23.0992 17.7628 23.9735 17.1182 24.6182C16.4735 25.2628 15.5992 25.625 14.6875 25.625H14.375V27.1875C14.375 27.4361 14.2762 27.6746 14.1004 27.8504C13.9246 28.0262 13.6861 28.125 13.4375 28.125C13.1889 28.125 12.9504 28.0262 12.7746 27.8504C12.5988 27.6746 12.5 27.4361 12.5 27.1875V25.625H10.9375C10.6889 25.625 10.4504 25.5262 10.2746 25.3504C10.0988 25.1746 10 24.9361 10 24.6875C10 24.4389 10.0988 24.2004 10.2746 24.0246C10.4504 23.8488 10.6889 23.75 10.9375 23.75H14.6875C15.1019 23.75 15.4993 23.5854 15.7924 23.2924C16.0854 22.9993 16.25 22.6019 16.25 22.1875C16.25 21.7731 16.0854 21.3757 15.7924 21.0826C15.4993 20.7896 15.1019 20.625 14.6875 20.625H12.1875C11.2758 20.625 10.4015 20.2628 9.75682 19.6182C9.11216 18.9735 8.75 18.0992 8.75 17.1875C8.75 16.2758 9.11216 15.4015 9.75682 14.7568C10.4015 14.1122 11.2758 13.75 12.1875 13.75H12.5V12.1875C12.5 11.9389 12.5988 11.7004 12.7746 11.5246C12.9504 11.3488 13.1889 11.25 13.4375 11.25C13.6861 11.25 13.9246 11.3488 14.1004 11.5246C14.2762 11.7004 14.375 11.9389 14.375 12.1875V13.75H15.9375C16.1861 13.75 16.4246 13.8488 16.6004 14.0246C16.7762 14.2004 16.875 14.4389 16.875 14.6875C16.875 14.9361 16.7762 15.1746 16.6004 15.3504C16.4246 15.5262 16.1861 15.625 15.9375 15.625H12.1875C11.7731 15.625 11.3757 15.7896 11.0826 16.0826C10.7896 16.3757 10.625 16.7731 10.625 17.1875C10.625 17.6019 10.7896 17.9993 11.0826 18.2924C11.3757 18.5854 11.7731 18.75 12.1875 18.75H14.6875C15.5992 18.75 16.4735 19.1122 17.1182 19.7568C17.7628 20.4015 18.125 21.2758 18.125 22.1875Z" fill="#277C78"/>
</svg>
