<svg width="20" height="20" viewBox="0 0 20 20" fill="none" xmlns="http://www.w3.org/2000/svg">
<path d="M13.5006 5.25059L13.5006 14.2506C13.5006 14.4495 13.4216 14.6403 13.2809 14.7809C13.1403 14.9216 12.9495 15.0006 12.7506 15.0006H10.5006L10.5006 18.7506C10.5007 18.899 10.4568 19.0441 10.3744 19.1676C10.292 19.291 10.1748 19.3872 10.0377 19.4441C9.90057 19.5009 9.74967 19.5157 9.60411 19.4867C9.45855 19.4578 9.32486 19.3862 9.21996 19.2812L0.219965 10.2812C0.150233 10.2116 0.0949133 10.1288 0.0571701 10.0378C0.0194269 9.94675 0 9.84915 0 9.75059C0 9.65203 0.0194269 9.55444 0.0571701 9.46339C0.0949133 9.37234 0.150233 9.28962 0.219965 9.21997L9.21996 0.219966C9.32486 0.114957 9.45855 0.0434315 9.60411 0.0144437C9.74967 -0.0145441 9.90057 0.000309371 10.0377 0.0571237C10.1748 0.113938 10.292 0.210159 10.3744 0.333604C10.4568 0.45705 10.5007 0.602169 10.5006 0.750591V4.50059H12.7506C12.9495 4.50059 13.1403 4.57961 13.2809 4.72026C13.4216 4.86091 13.5006 5.05168 13.5006 5.25059ZM15.7506 4.50059C15.5517 4.50059 15.3609 4.57961 15.2203 4.72026C15.0796 4.86091 15.0006 5.05168 15.0006 5.25059L15.0006 14.2506C15.0006 14.4495 15.0796 14.6403 15.2203 14.7809C15.3609 14.9216 15.5517 15.0006 15.7506 15.0006C15.9495 15.0006 16.1403 14.9216 16.2809 14.7809C16.4216 14.6403 16.5006 14.4495 16.5006 14.2506L16.5006 5.25059C16.5006 5.05168 16.4216 4.86091 16.2809 4.72026C16.1403 4.57961 15.9495 4.50059 15.7506 4.50059ZM18.7506 4.50059C18.5517 4.50059 18.3609 4.57961 18.2203 4.72026C18.0796 4.86091 18.0006 5.05168 18.0006 5.25059L18.0006 14.2506C18.0006 14.4495 18.0796 14.6403 18.2203 14.7809C18.3609 14.9216 18.5517 15.0006 18.7506 15.0006C18.9495 15.0006 19.1403 14.9216 19.2809 14.7809C19.4216 14.6403 19.5006 14.4495 19.5006 14.2506L19.5006 5.25059C19.5006 5.05168 19.4216 4.86091 19.2809 4.72026C19.1403 4.57961 18.9495 4.50059 18.7506 4.50059Z" fill="#B3B3B3"/>
</svg>
