<svg width="18" height="19" viewBox="0 0 18 19" fill="none" xmlns="http://www.w3.org/2000/svg">
<path d="M18 8.58122L18 17.2484C18 17.6462 17.842 18.0278 17.5607 18.3091C17.2794 18.5904 16.8978 18.7484 16.5 18.7484H12.75C12.3522 18.7484 11.9706 18.5904 11.6893 18.3091C11.408 18.0278 11.25 17.6462 11.25 17.2484L11.25 13.4984C11.25 13.2995 11.171 13.1087 11.0303 12.9681C10.8897 12.8274 10.6989 12.7484 10.5 12.7484H7.5C7.30109 12.7484 7.11032 12.8274 6.96967 12.9681C6.82902 13.1087 6.75 13.2995 6.75 13.4984L6.75 17.2484C6.75 17.6462 6.59196 18.0278 6.31066 18.3091C6.02936 18.5904 5.64782 18.7484 5.25 18.7484H1.5C1.10218 18.7484 0.720644 18.5904 0.43934 18.3091C0.158035 18.0278 1.73323e-08 17.6462 1.73323e-08 17.2484L1.73323e-08 8.58122C-3.15402e-05 8.37362 0.0430305 8.16827 0.126461 7.97817C0.209891 7.78807 0.331873 7.61736 0.484687 7.47684L7.98469 0.400593L7.995 0.390281C8.27113 0.139155 8.63097 0 9.00422 0C9.37747 0 9.7373 0.139155 10.0134 0.390281C10.0166 0.393949 10.0201 0.397394 10.0237 0.400593L17.5237 7.47684C17.675 7.6181 17.7954 7.78915 17.8774 7.97921C17.9594 8.16927 18.0011 8.37424 18 8.58122Z" fill="#B3B3B3"/>
</svg>
