<svg width="17" height="21" viewBox="0 0 17 21" fill="none" xmlns="http://www.w3.org/2000/svg">
<path d="M13.5 3.07594V1.5C13.5 1.10218 13.342 0.720644 13.0607 0.43934C12.7794 0.158035 12.3978 0 12 0L4.5 0C4.10218 0 3.72064 0.158035 3.43934 0.43934C3.15804 0.720644 3 1.10218 3 1.5V3.07594C2.15354 3.24962 1.39289 3.70995 0.846371 4.37926C0.299854 5.04857 0.000920065 5.8859 0 6.75L0 17.25C0 18.2446 0.395088 19.1984 1.09835 19.9017C1.80161 20.6049 2.75544 21 3.75 21L12.75 21C13.7446 21 14.6984 20.6049 15.4017 19.9017C16.1049 19.1984 16.5 18.2446 16.5 17.25L16.5 6.75C16.4991 5.8859 16.2001 5.04857 15.6536 4.37926C15.1071 3.70995 14.3465 3.24962 13.5 3.07594ZM7.5 1.5L9 1.5V3H7.5L7.5 1.5ZM4.5 1.5L6 1.5L6 3H4.5L4.5 1.5ZM9 15.75V16.5C9 16.6989 8.92098 16.8897 8.78033 17.0303C8.63968 17.171 8.44891 17.25 8.25 17.25C8.05109 17.25 7.86032 17.171 7.71967 17.0303C7.57902 16.8897 7.5 16.6989 7.5 16.5V15.75H6.75C6.55109 15.75 6.36032 15.671 6.21967 15.5303C6.07902 15.3897 6 15.1989 6 15C6 14.8011 6.07902 14.6103 6.21967 14.4697C6.36032 14.329 6.55109 14.25 6.75 14.25H9C9.19891 14.25 9.38968 14.171 9.53033 14.0303C9.67098 13.8897 9.75 13.6989 9.75 13.5C9.75 13.3011 9.67098 13.1103 9.53033 12.9697C9.38968 12.829 9.19891 12.75 9 12.75H7.5C6.90326 12.75 6.33097 12.5129 5.90901 12.091C5.48705 11.669 5.25 11.0967 5.25 10.5C5.25 9.90326 5.48705 9.33097 5.90901 8.90901C6.33097 8.48705 6.90326 8.25 7.5 8.25V7.5C7.5 7.30109 7.57902 7.11032 7.71967 6.96967C7.86032 6.82902 8.05109 6.75 8.25 6.75C8.44891 6.75 8.63968 6.82902 8.78033 6.96967C8.92098 7.11032 9 7.30109 9 7.5V8.25H9.75C9.94891 8.25 10.1397 8.32902 10.2803 8.46967C10.421 8.61032 10.5 8.80109 10.5 9C10.5 9.19891 10.421 9.38968 10.2803 9.53033C10.1397 9.67098 9.94891 9.75 9.75 9.75H7.5C7.30109 9.75 7.11032 9.82902 6.96967 9.96967C6.82902 10.1103 6.75 10.3011 6.75 10.5C6.75 10.6989 6.82902 10.8897 6.96967 11.0303C7.11032 11.171 7.30109 11.25 7.5 11.25H9C9.59674 11.25 10.169 11.4871 10.591 11.909C11.0129 12.331 11.25 12.9033 11.25 13.5C11.25 14.0967 11.0129 14.669 10.591 15.091C10.169 15.5129 9.59674 15.75 9 15.75ZM12 3H10.5V1.5L12 1.5V3Z" fill="#B3B3B3"/>
</svg>
