<svg width="17" height="17" viewBox="0 0 17 17" fill="none" xmlns="http://www.w3.org/2000/svg">
<path d="M7.4434 12.4637C7.50025 12.6007 7.51519 12.7516 7.48632 12.8971C7.45745 13.0426 7.38607 13.1763 7.28122 13.2812L4.28122 16.2812C4.21156 16.3509 4.12884 16.4063 4.0378 16.444C3.94675 16.4818 3.84915 16.5012 3.75059 16.5012C3.65203 16.5012 3.55443 16.4818 3.46339 16.444C3.37234 16.4063 3.28962 16.3509 3.21997 16.2812L0.219966 13.2812C0.114957 13.1763 0.0434315 13.0426 0.0144437 12.8971C-0.0145441 12.7515 0.00030937 12.6006 0.0571237 12.4635C0.113938 12.3264 0.210159 12.2092 0.333604 12.1268C0.457049 12.0444 0.602169 12.0005 0.750591 12.0006H3.00059L3.00059 0.75059C3.00059 0.551678 3.07961 0.360912 3.22026 0.22026C3.36091 0.0796079 3.55168 0.000590086 3.75059 0.000590086C3.9495 0.000590086 4.14027 0.0796079 4.28092 0.22026C4.42157 0.360912 4.50059 0.551678 4.50059 0.75059L4.50059 12.0006L6.75059 12.0006C6.89893 12.0006 7.04392 12.0446 7.16724 12.1271C7.29056 12.2095 7.38667 12.3267 7.4434 12.4637ZM16.2812 3.21996L13.2812 0.219965C13.2116 0.150233 13.1288 0.0949136 13.0378 0.0571704C12.9467 0.0194272 12.8492 0 12.7506 0C12.652 0 12.5544 0.0194272 12.4634 0.0571704C12.3723 0.0949136 12.2896 0.150233 12.22 0.219965L9.21997 3.21996C9.11496 3.32486 9.04343 3.45855 9.01444 3.60411C8.98546 3.74967 9.00031 3.90057 9.05713 4.03768C9.11394 4.1748 9.21016 4.29198 9.3336 4.37438C9.45705 4.45678 9.60217 4.50071 9.75059 4.50059H12.0006L12.0006 15.7506C12.0006 15.9495 12.0796 16.1403 12.2203 16.2809C12.3609 16.4216 12.5517 16.5006 12.7506 16.5006C12.9495 16.5006 13.1403 16.4216 13.2809 16.2809C13.4216 16.1403 13.5006 15.9495 13.5006 15.7506L13.5006 4.50059L15.7506 4.50059C15.899 4.50071 16.0441 4.45678 16.1676 4.37438C16.291 4.29198 16.3872 4.1748 16.4441 4.03768C16.5009 3.90057 16.5157 3.74967 16.4867 3.60411C16.4578 3.45855 16.3862 3.32486 16.2812 3.21996Z" fill="#B3B3B3"/>
</svg>
